<svg id="Layer_1" data-name="Layer 1" xmlns="http://www.w3.org/2000/svg" viewBox="0 0 610.49 155.32">
  <defs>
    <style>
      .cls-1 {
        fill: #262424;
      }
    </style>
  </defs>
  <title>Nordlid_logo_thicker_black_web</title>
  <path class="cls-1" d="M760.74,360.78c-15.31,0-26.81-4.15-34.18-12.34s-11-21.14-11-38.65c0-15.93,3.48-28.34,10.35-36.89s18.4-13,34-13c10.77,0,21.49,3.08,31.89,9.17-3.12-17-9.78-30.15-19.84-39.25l-18,12.75a1.5,1.5,0,0,1-2.08-.34l-3.42-4.69a1.51,1.51,0,0,1-.26-1.13,1.47,1.47,0,0,1,.61-1l15.68-11.09c-9.56-5.84-21.85-8.8-36.57-8.8a1.5,1.5,0,0,1-1.18-.57,1.47,1.47,0,0,1-.28-1.28l1.49-6.19a1.5,1.5,0,0,1,1.41-1.14c17.35-.57,32.18,3.27,44.2,11.4l16.85-12a1.48,1.48,0,0,1,1.12-.25,1.46,1.46,0,0,1,1,.62l3.41,4.9a1.5,1.5,0,0,1-.36,2.08l-14.69,10.43c16.4,15.15,24.7,39.86,24.7,73.47,0,7.51-.25,14.09-.75,19.55a89,89,0,0,1-3.36,17A39.17,39.17,0,0,1,794,348.1a35.14,35.14,0,0,1-13.25,9.15A51.69,51.69,0,0,1,760.74,360.78Zm-388.27,0c-17.31,0-29.68-4.27-36.78-12.7s-10.59-22.74-10.59-42.77,3.6-34.44,10.7-42.79h0c7.17-8.42,19.5-12.69,36.67-12.69s29.49,4.27,36.66,12.69,10.7,22.75,10.7,42.79-3.56,34.43-10.59,42.77S389.77,360.78,372.47,360.78Zm173.43,0c-13.7,0-23.66-4.46-29.61-13.25-5.84-8.6-8.8-22.8-8.8-42.22,0-19.72,3-34,9-42.47,6.11-8.63,16.28-13,30.24-13,12.14,0,25.4,3.2,39.45,9.51-.28-3.9-.42-9.8-.42-17.61V207.39a1.5,1.5,0,0,1,1.5-1.5h8.32a1.5,1.5,0,0,1,1.5,1.5V356.72a1.5,1.5,0,0,1-1.5,1.5h-6.4a1.5,1.5,0,0,1-1.49-1.41l-.88-14.06C572.51,354.71,558.75,360.78,545.9,360.78Zm106.61-1.07c-7.35,0-13.26-2.15-17.59-6.4S628.4,343,628.4,335.38v-128a1.5,1.5,0,0,1,1.5-1.5h8.53a1.5,1.5,0,0,1,1.5,1.5V334.1c-.13,4.92,1,8.49,3.6,11s6.28,3.74,11.11,3.74h11.74a1.48,1.48,0,0,1,1.47,1.24l1.07,6.19a1.5,1.5,0,0,1-1,1.68C664.36,359.11,659.18,359.71,652.51,359.71Zm38.9-1.49h-8.32a1.5,1.5,0,0,1-1.5-1.5V253.89a1.5,1.5,0,0,1,1.5-1.5h8.32a1.5,1.5,0,0,1,1.5,1.5V356.72A1.5,1.5,0,0,1,691.41,358.22Zm-239.8,0h-8.32a1.5,1.5,0,0,1-1.5-1.5V253.89a1.5,1.5,0,0,1,1.5-1.5h6.4a1.5,1.5,0,0,1,1.5,1.42l.9,15.28c16.66-12.78,32-19.26,45.6-19.26H502a1.5,1.5,0,0,1,1.48,1.74l-1.28,8.1a1.51,1.51,0,0,1-1.48,1.27h-4.27a46,46,0,0,0-18.9,4.24c-6.23,2.81-14.44,7.47-24.4,13.85v77.69A1.5,1.5,0,0,1,451.61,358.22Zm-153.72,0H286.37a6.57,6.57,0,0,1-6.27-4.07L216.56,233.9c-3.6-6.94-6.12-12-7.53-15h-2.39c.11,3.55.16,8.42.16,14.5v123.3a1.5,1.5,0,0,1-1.5,1.5h-8.74a1.5,1.5,0,0,1-1.5-1.5V213.79c0-3.67,2.1-5.77,5.76-5.77h10.67a6.72,6.72,0,0,1,6.48,4.07L279.8,329.57c1.09,1.77,4.12,7.53,9.19,17.54h2.91c0-2.13,0-5-.1-8.61-.07-4.27-.11-7.71-.11-9.94v-119a1.5,1.5,0,0,1,1.5-1.5h8.75a1.5,1.5,0,0,1,1.5,1.5V352.45C303.44,356.12,301.42,358.22,297.89,358.22Zm461.78-87.89c-11.66,0-20,3.41-24.8,10.14-4.91,6.89-7.4,16.76-7.4,29.32,0,14.63,2.71,25.18,8.06,31.33s13.84,9.19,25.42,9.19a37.72,37.72,0,0,0,14.67-2.55,24.55,24.55,0,0,0,9.46-6.72,31,31,0,0,0,5.57-11.5,80.26,80.26,0,0,0,2.73-15.08c.42-5.14.63-11.45.63-18.75,0-4.17-.26-9.67-.79-16.38A67,67,0,0,0,759.67,270.33Zm-387.2-9.82c-13.26,0-22.56,3.19-27.64,9.47s-7.77,18.27-7.77,35.33,2.62,29,7.78,35.43,14.37,9.57,27.63,9.57,22.59-3.22,27.74-9.58,7.88-18.37,7.88-35.42-2.65-28.93-7.88-35.32h0C395.06,263.7,385.73,260.51,372.47,260.51Zm175.35,0c-10.37,0-17.77,3.22-22,9.58-4.37,6.54-6.58,18.31-6.58,35s2.21,28.55,6.58,35.23,11.42,9.78,21.79,9.78A39.84,39.84,0,0,0,565,346c5.65-2.72,12.64-7.39,20.8-13.88V269.23C570.25,263.44,557.48,260.51,547.82,260.51Zm141.46-34.37h-3.84c-3.12,0-4.92-1.79-4.92-4.91v-6.8c0-3.12,1.8-4.91,4.92-4.91h3.84c3,0,4.7,1.79,4.7,4.91v6.8C694,224.35,692.26,226.14,689.28,226.14Z" transform="translate(-195.06 -205.46)"/>
</svg>
